# xmcd
#
# Track frame offsets:
#	150
#	16883
#	28021
#	46435
#	64204
#	79587
#	92662
#	107403
#	120410
#	137341
#	148690
#	163916
#
# Disc length: 2424 seconds
#
# Revision: 0
# Processed by: cddbd v1.5.2PL0 Copyright (c) Steve Scherf et al.
# Submitted via: dBpowerAMP V4.0
#
DISCID=9509760c
DTITLE=Various Artist - #1 90's Country Hits
DYEAR=1900
DGENRE=Country
TTITLE0=Vince Gill - Don't Let Our Love Start Slipping Away
TTITLE1=Patty Loveless - Chains
TTITLE2=Mark Chesnutt - I Don't Want to Miss A Thing
TTITLE3=David Lee Murphy - Dust on the Bottle
TTITLE4=Bill Ray Cyrus - Achy Breaky Heart
TTITLE5=Sammy Kershaw - She Don't Know She's Beautiful
TTITLE6=Chely Wright - Single White Female
TTITLE7=The Oak Ridge Boys - No Matter How High
TTITLE8=Vince Gill - Tryin' to Get Over You
TTITLE9=Tracy Byrd - Holdin' Heaven
TTITLE10=Rhett Akins - Don't Get Me Started
TTITLE11=Mark Wills - Wish You Were Here
EXTD=
EXTT0=
EXTT1=
EXTT2=
EXTT3=
EXTT4=
EXTT5=
EXTT6=
EXTT7=
EXTT8=
EXTT9=
EXTT10=
EXTT11=
PLAYORDER=
